HIERARCHY
ROOT Hips
{
	OFFSET 0.000000 0.000000 0.000000
	CHANNELS 6 Xposition Yposition Zposition Zrotation Yrotation Xrotation 
	JOINT LHipJoint
	{
		OFFSET 0.000000 0.000000 0.000000
		CHANNELS 3 Zrotation Yrotation Xrotation
		JOINT LeftUpLeg
		{
			OFFSET 1.363060 -1.794630 0.839290
			CHANNELS 3 Zrotation Yrotation Xrotation
			JOINT LeftLeg
			{
				OFFSET 2.448110 -6.726130 0.000000
				CHANNELS 3 Zrotation Yrotation Xrotation
				JOINT LeftFoot
				{
					OFFSET 2.562200 -7.039590 0.000000
					CHANNELS 3 Zrotation Yrotation Xrotation
					JOINT LeftToeBase
					{
						OFFSET 0.157640 -0.433110 2.322550
						CHANNELS 3 Zrotation Yrotation Xrotation
						End Site
						{
							OFFSET 0.000000 0.000000 0.000000
						}
					}
				}
			}
		}
	}
	JOINT RHipJoint
	{
		OFFSET 0.000000 0.000000 0.000000
		CHANNELS 3 Zrotation Yrotation Xrotation
		JOINT RightUpLeg
		{
			OFFSET -1.305520 -1.794630 0.839290
			CHANNELS 3 Zrotation Yrotation Xrotation
			JOINT RightLeg
			{
				OFFSET -2.542530 -6.985550 0.000000
				CHANNELS 3 Zrotation Yrotation Xrotation
				JOINT RightFoot
				{
					OFFSET -2.568260 -7.056230 0.000000
					CHANNELS 3 Zrotation Yrotation Xrotation
					JOINT RightToeBase
					{
						OFFSET -0.164730 -0.452590 2.363150
						CHANNELS 3 Zrotation Yrotation Xrotation
						End Site
						{
							OFFSET 0.000000 0.000000 0.000000
						}
					}
				}
			}
		}
	}
	JOINT LowerBack
	{
		OFFSET 0.000000 0.000000 0.000000
		CHANNELS 3 Zrotation Yrotation Xrotation
		JOINT Spine
		{
			OFFSET 0.028270 2.035590 -0.193380
			CHANNELS 3 Zrotation Yrotation Xrotation
			JOINT Spine1
			{
				OFFSET 0.056720 2.048850 -0.042750
				CHANNELS 3 Zrotation Yrotation Xrotation
				JOINT Neck
				{
					OFFSET 0.000000 0.000000 0.000000
					CHANNELS 3 Zrotation Yrotation Xrotation
					JOINT Neck1
					{
						OFFSET -0.054170 1.746240 0.172020
						CHANNELS 3 Zrotation Yrotation Xrotation
						JOINT Head
						{
							OFFSET 0.104070 1.761360 -0.123970
							CHANNELS 3 Zrotation Yrotation Xrotation
							End Site
							{
								OFFSET 0.000000 0.000000 0.000000
							}
						}
					}
				}
				JOINT LeftShoulder
				{
					OFFSET 0.000000 0.000000 0.000000
					CHANNELS 3 Zrotation Yrotation Xrotation
					JOINT LeftArm
					{
						OFFSET 3.362410 1.200890 -0.311210
						CHANNELS 3 Zrotation Yrotation Xrotation
						JOINT LeftForeArm
						{
							OFFSET 4.983000 -0.000000 -0.000000
							CHANNELS 3 Zrotation Yrotation Xrotation
							JOINT LeftHand
							{
								OFFSET 3.483560 -0.000000 -0.000000
								CHANNELS 3 Zrotation Yrotation Xrotation
								JOINT LeftFingerBase
								{
									OFFSET 0.000000 0.000000 0.000000
									CHANNELS 3 Zrotation Yrotation Xrotation
									JOINT LeftHandIndex1
									{
										OFFSET 0.715260 -0.000000 -0.000000
										CHANNELS 3 Zrotation Yrotation Xrotation
										End Site
										{
											OFFSET 0.000000 0.000000 0.000000
										}
									}
								}
								JOINT LThumb
								{
									OFFSET 0.000000 0.000000 0.000000
									CHANNELS 3 Zrotation Yrotation Xrotation
									End Site
									{
										OFFSET 0.000000 0.000000 0.000000
									}
								}
							}
						}
					}
				}
				JOINT RightShoulder
				{
					OFFSET 0.000000 0.000000 0.000000
					CHANNELS 3 Zrotation Yrotation Xrotation
					JOINT RightArm
					{
						OFFSET -3.136600 1.374050 -0.404650
						CHANNELS 3 Zrotation Yrotation Xrotation
						JOINT RightForeArm
						{
							OFFSET -5.241900 -0.000000 -0.000000
							CHANNELS 3 Zrotation Yrotation Xrotation
							JOINT RightHand
							{
								OFFSET -3.444170 -0.000000 -0.000000
								CHANNELS 3 Zrotation Yrotation Xrotation
								JOINT RightFingerBase
								{
									OFFSET 0.000000 0.000000 0.000000
									CHANNELS 3 Zrotation Yrotation Xrotation
									JOINT RightHandIndex1
									{
										OFFSET -0.622530 -0.000000 -0.000000
										CHANNELS 3 Zrotation Yrotation Xrotation
										End Site
										{
											OFFSET 0.000000 0.000000 0.000000
										}
									}
								}
								JOINT RThumb
								{
									OFFSET 0.000000 0.000000 0.000000
									CHANNELS 3 Zrotation Yrotation Xrotation
									End Site
									{
										OFFSET 0.000000 0.000000 0.000000
									}
								}
							}
						}
					}
				}
			}
		}
	}
}
MOTION
Frames: 5
Frame Time: 0.008333
-1.114699 17.441604 -7.926051 179.928609 4.331813 -159.400845 9.203153 0.257315 -1.856720 -14.332678 -26.285587 -32.250559 -1.024309 8.221705 15.992480 0.005475 -2.263532 -4.995516 3.911300 -12.041500 -35.878900 -12.753185 -2.936296 -2.264313 34.550208 15.015527 -8.797057 0.325338 -6.865092 19.617640 -1.935480 2.224696 -24.475147 -2.491500 9.822500 -28.403800 -3.337347 -0.876030 -23.655572 1.555710 -0.700071 -4.406000 -0.798147 -0.558033 15.270462 -10.634281 4.193602 6.605390 17.135998 0.708699 18.667605 4.149400 1.673300 1.008100 15.295465 -2.456947 1.478245 -104.664082 -3.328267 6.230756 8.032770 -7.619066 -0.622218 -1.389585 1.431247 18.596235 17.529040 -8.069471 -3.118400 -7.125000 0.000000 0.000000 -5.467900 20.527000 3.217900 -11.392514 -1.248314 0.097856 96.705061 -5.504178 10.976726 -20.795146 33.073464 -8.004120 0.079832 3.853245 -8.116704 -10.946413 -46.772680 8.982400 7.125000 0.000000 0.000000 58.121800 -74.637800 -43.830600 
-1.133850 17.444136 -8.031709 179.908574 4.379873 -159.346717 9.197650 0.271914 -1.850762 -14.622345 -26.225246 -32.182716 -0.991326 8.359929 16.394791 -0.010649 -2.366000 -5.186178 3.926900 -12.062500 -35.953600 -12.754854 -2.943435 -2.271686 34.513127 14.992295 -8.738255 0.286289 -6.971852 19.956345 -1.868857 1.803341 -24.171375 -2.793600 10.353200 -30.128200 -3.452562 -0.956604 -23.804831 1.551140 -0.751047 -4.403010 -0.760921 -0.597137 15.391143 -10.612646 3.989435 6.328306 17.147752 0.453607 18.445727 4.155800 1.514500 1.010000 15.289383 -2.457617 1.455624 -104.605130 -3.566025 6.644640 8.074197 -7.665173 -0.628244 -1.428676 1.395049 18.051922 17.684283 -7.876059 -3.070700 -7.125000 0.000000 0.000000 -5.343400 20.751200 3.116900 -11.349698 -1.254097 0.102406 96.742460 -5.524349 10.535623 -20.184017 32.441685 -7.647626 0.167867 3.913139 -8.001052 -12.317945 -46.990182 10.164200 7.125000 0.000000 0.000000 57.985800 -75.303000 -44.397400 
-1.155201 17.445126 -8.139129 179.885831 4.405843 -159.302011 9.189698 0.285993 -1.842867 -14.959096 -26.167085 -32.070905 -0.943376 8.497613 16.806601 -0.080435 -2.828452 -5.463208 3.886700 -12.008100 -35.760500 -12.742022 -2.962668 -2.283825 34.436534 14.851616 -8.655727 0.276132 -6.986852 20.049189 -1.802961 1.414792 -23.853122 -3.160200 10.950000 -32.111300 -3.472154 -0.998409 -23.931089 1.516642 -0.768623 -4.411253 -0.847012 -0.599513 15.426449 -10.605946 4.097870 6.454671 17.326895 0.528951 18.317772 4.221400 1.539900 0.927600 15.281059 -2.499400 1.445796 -104.498037 -3.708221 7.138387 8.172596 -7.802098 -0.644376 -1.451166 1.291275 17.509464 17.598015 -7.281816 -2.816900 -7.125000 0.000000 0.000000 -5.419600 21.473300 3.072900 -11.339406 -1.285572 0.124695 96.905147 -5.599320 9.982093 -19.600902 31.817329 -7.303702 0.205444 3.951281 -7.692047 -12.661072 -47.190300 10.486100 7.125000 0.000000 0.000000 58.569300 -75.542600 -45.149500 
-1.175673 17.450409 -8.246879 179.843863 4.486780 -159.273352 9.176014 0.300403 -1.833017 -15.318700 -26.065422 -31.918207 -0.896875 8.620383 17.193531 -0.145489 -3.266470 -5.746009 3.908900 -12.038100 -35.867000 -12.716680 -2.978411 -2.287760 34.282931 14.688501 -8.727212 0.197757 -7.166383 20.588766 -1.787724 1.408988 -23.736389 -3.236200 11.067900 -32.509300 -3.501033 -1.010857 -24.042911 1.477474 -0.740934 -4.448427 -0.916663 -0.573577 15.334536 -10.502085 4.124692 6.791914 17.394136 0.494385 18.115405 4.217300 1.499400 0.785400 15.265380 -2.549715 1.441626 -104.378080 -3.860032 7.419444 8.151671 -7.751357 -0.639091 -1.475816 1.289996 17.365258 17.759676 -7.214625 -2.820500 -7.125000 0.000000 0.000000 -5.287100 21.538700 2.989400 -11.323937 -1.319355 0.146013 97.028927 -5.829009 9.440798 -18.974777 31.128161 -6.931503 0.190628 3.988230 -7.312992 -12.166859 -47.509951 10.117500 7.125000 0.000000 0.000000 60.229200 -75.490400 -46.548200 
-1.194823 17.460314 -8.347365 179.761981 4.561410 -159.185767 9.162461 0.310482 -1.830955 -15.682807 -25.916626 -31.810698 -0.860697 8.712317 17.489674 -0.196584 -3.617894 -5.976329 3.944900 -12.086700 -36.039400 -12.693069 -2.968256 -2.273543 34.078158 14.648987 -9.140177 0.000952 -7.665769 21.963227 -1.813730 1.718841 -23.815968 -2.918000 10.561100 -30.813600 -3.636754 -1.055506 -24.143816 1.447950 -0.721068 -4.490239 -0.890122 -0.562176 15.224655 -10.525024 4.177588 6.895503 17.501712 0.517041 17.980243 4.264100 1.494900 0.718000 15.255820 -2.578899 1.427146 -104.281375 -3.993239 7.807531 8.164704 -7.764015 -0.646024 -1.486279 1.329627 17.185071 17.932699 -7.514240 -2.970300 -7.125000 0.000000 0.000000 -5.147700 21.171300 2.952800 -11.304091 -1.342180 0.161281 97.097615 -6.123580 8.888963 -18.409444 30.502650 -6.606021 0.205269 4.049087 -6.915361 -12.206719 -48.113937 10.236700 7.125000 0.000000 0.000000 62.660000 -75.756000 -48.980500 
